<?xml version="1.0" standalone="no"?><!DOCTYPE svg PUBLIC "-//W3C//DTD SVG 1.1//EN" "http://www.w3.org/Graphics/SVG/1.1/DTD/svg11.dtd"><svg height="1024" node-id="1" sillyvg="true" template-height="1024" template-width="1024" version="1.1" viewBox="0 0 1024 1024" width="1024" xmlns="http://www.w3.org/2000/svg" xmlns:xlink="http://www.w3.org/1999/xlink"><defs node-id="75"><clipPath id="clip-文档" node-id="9"><path d="M 0.00 0.00 L 1024.00 0.00 L 1024.00 1024.00 L 0.00 1024.00 Z" fill="#000000" fill-rule="nonzero" node-id="78" stroke="none" target-height="1024" target-width="1024" target-x="0" target-y="0"></path></clipPath><clipPath id="clip-path" node-id="3"><path d="M 541.70 595.50 L 547.20 634.90 L 549.00 650.10 L 550.90 670.40 L 551.20 691.50 L 550.90 699.80 L 549.30 714.00 L 546.60 726.00 L 542.50 738.40 L 531.30 764.40 L 516.50 800.10 L 514.10 804.30 L 511.10 806.10 L 508.20 806.90 L 504.50 807.30 L 500.80 807.30 L 496.90 806.70 L 492.00 805.20 L 487.90 802.60 L 486.40 801.00 L 485.10 799.00 L 484.40 796.90 L 484.10 794.40 L 484.40 791.50 L 487.30 780.50 L 502.00 737.60 L 505.60 726.30 L 507.10 719.60 L 505.80 701.70 L 500.70 645.20 L 503.00 603.20 Z" fill="#000000" fill-rule="nonzero" id="路径_1329" node-id="4" stroke="none" target-height="211.79999" target-width="67.100006" target-x="484.1" target-y="595.5"></path></clipPath><clipPath id="clip-path-2" node-id="5"><path d="M 513.40 604.00 L 509.60 637.10 L 504.30 676.70 L 501.30 694.80 L 498.40 708.70 L 494.50 722.30 L 489.10 739.70 L 476.60 777.70 L 465.00 811.60 L 463.80 812.50 L 462.20 812.80 L 456.10 812.90 L 452.40 812.50 L 444.60 810.80 L 441.20 809.50 L 437.30 807.10 L 435.90 805.80 L 434.90 804.30 L 434.40 802.70 L 434.40 800.90 L 451.70 723.70 L 455.40 706.70 L 458.50 688.90 L 458.60 686.80 L 456.50 654.00 L 456.20 637.50 L 456.30 629.00 L 457.50 612.60 L 458.60 605.20 L 459.60 600.40 L 462.20 592.50 L 463.60 589.90 L 465.00 587.90 L 466.70 586.30 L 468.40 585.20 L 471.10 584.20 L 473.90 583.70 L 477.00 583.70 L 480.20 584.20 L 486.90 586.40 L 491.80 588.80 L 496.60 591.50 L 505.10 597.30 L 513.40 604.00 Z" fill="#000000" fill-rule="nonzero" id="路径_1334" node-id="6" stroke="none" target-height="229.20001" target-width="79.00003" target-x="434.4" target-y="583.7"></path></clipPath><clipPath id="clip-path-3" node-id="7"><path d="M 547.00 437.50 L 554.00 443.50 L 555.60 445.70 L 542.10 595.60 L 534.90 600.10 L 526.30 603.80 L 521.00 605.40 L 514.80 606.60 L 505.80 607.30 L 500.70 607.20 L 494.30 606.50 L 483.80 604.40 L 476.70 602.10 L 471.40 599.90 L 466.70 597.50 L 461.30 593.90 L 466.20 485.90 L 477.80 437.50 L 485.80 434.40 L 489.30 433.40 L 493.00 432.60 L 496.60 432.30 L 499.70 432.50 L 497.90 462.10 L 505.00 463.10 L 505.00 471.10 L 521.30 498.20 L 539.30 471.10 L 539.30 463.10 L 547.00 462.10 Z" fill="#000000" fill-rule="nonzero" id="路径_1320" node-id="8" stroke="none" target-height="175" target-width="94.29999" target-x="461.3" target-y="432.3"></path></clipPath></defs><g clip-path="url(#clip-文档)" id="文档" node-id="11"><path d="M 0.00 0.00 L 1024.00 0.00 L 1024.00 1024.00 L 0.00 1024.00 Z" fill="#ffffff" fill-opacity="0" fill-rule="nonzero" node-id="92" stroke="none" target-height="1024" target-width="1024" target-x="0" target-y="0"></path><path d="M 624.00 839.50 L 623.70 842.10 L 622.90 844.70 L 621.50 847.30 L 619.50 849.90 L 616.70 852.60 L 613.10 855.40 L 608.60 858.30 L 603.10 861.10 L 596.50 864.00 L 582.80 868.70 L 565.70 873.00 L 553.80 875.30 L 540.80 877.30 L 526.50 878.90 L 512.30 880.00 L 497.30 880.70 L 481.50 881.00 L 465.70 880.70 L 450.70 880.00 L 436.50 878.90 L 422.20 877.30 L 409.20 875.30 L 397.30 873.00 L 380.20 868.70 L 366.50 864.00 L 359.90 861.10 L 354.40 858.30 L 349.90 855.40 L 346.30 852.60 L 343.50 849.90 L 341.50 847.30 L 340.10 844.70 L 339.30 842.10 L 339.00 839.50 L 339.30 836.90 L 340.10 834.30 L 341.50 831.70 L 343.50 829.10 L 346.30 826.40 L 349.90 823.60 L 354.40 820.70 L 359.90 817.90 L 366.50 815.00 L 380.20 810.30 L 397.30 806.00 L 409.20 803.70 L 422.20 801.70 L 436.50 800.10 L 450.70 799.00 L 465.70 798.30 L 481.50 798.00 L 497.30 798.30 L 512.30 799.00 L 526.50 800.10 L 540.80 801.70 L 553.80 803.70 L 565.70 806.00 L 582.80 810.30 L 596.50 815.00 L 603.10 817.90 L 608.60 820.70 L 613.10 823.60 L 616.70 826.40 L 619.50 829.10 L 621.50 831.70 L 622.90 834.30 L 623.70 836.90 L 624.00 839.50 Z" fill="#e1ebfa" fill-rule="nonzero" group-id="1" id="椭圆_798" node-id="13" stroke="none" target-height="83" target-width="285" target-x="339" target-y="798"></path><path d="M 216.00 171.50 L 746.00 171.50 L 748.90 171.70 L 754.20 173.20 L 756.60 174.40 L 759.50 176.50 L 762.00 179.00 L 764.10 181.90 L 765.40 184.40 L 766.80 189.60 L 767.00 192.50 L 767.00 591.50 L 766.80 594.40 L 765.40 599.70 L 764.10 602.10 L 762.00 605.10 L 759.50 607.60 L 756.60 609.70 L 754.20 610.90 L 748.90 612.30 L 746.00 612.50 L 216.00 612.50 L 213.10 612.30 L 207.80 610.90 L 205.40 609.70 L 202.50 607.60 L 200.00 605.10 L 197.90 602.10 L 196.60 599.70 L 195.20 594.40 L 195.00 591.50 L 195.00 192.50 L 195.20 189.60 L 196.60 184.40 L 197.90 181.90 L 200.00 179.00 L 202.50 176.50 L 205.40 174.40 L 207.80 173.20 L 213.10 171.70 L 216.00 171.50 Z" fill="#d9e7fe" fill-rule="nonzero" group-id="2" id="矩形_2391" node-id="14" stroke="none" target-height="441" target-width="572" target-x="195" target-y="171.5"></path><path d="M 258.00 209.50 L 788.00 209.50 L 790.90 209.70 L 796.20 211.20 L 798.60 212.40 L 801.50 214.50 L 804.00 217.00 L 806.10 219.90 L 807.40 222.40 L 808.80 227.60 L 809.00 230.50 L 809.00 660.50 L 237.00 660.50 L 237.00 230.50 L 237.20 227.60 L 238.60 222.40 L 239.90 219.90 L 242.00 217.00 L 244.50 214.50 L 247.40 212.40 L 249.80 211.20 L 255.10 209.70 L 258.00 209.50 Z" fill="#e6eefd" fill-rule="nonzero" group-id="3" node-id="103" stroke="none" target-height="451" target-width="572" target-x="237" target-y="209.5"></path><path d="M 258.00 210.50 L 788.00 210.50 L 791.70 210.90 L 795.00 211.80 L 798.10 213.30 L 800.90 215.30 L 803.30 217.60 L 805.30 220.40 L 806.70 223.50 L 807.70 226.90 L 808.00 230.50 L 808.00 659.50 L 238.00 659.50 L 238.00 230.50 L 238.30 226.90 L 239.30 223.50 L 240.70 220.40 L 242.70 217.60 L 245.10 215.30 L 247.90 213.30 L 251.00 211.80 L 254.30 210.90 L 258.00 210.50 Z" fill="none" group-id="3" node-id="105" stroke="#ffffff" stroke-linecap="butt" stroke-width="2" target-height="449" target-width="570" target-x="238" target-y="210.5"></path><path d="M 258.00 211.50 L 788.00 211.50 L 791.50 211.90 L 794.60 212.70 L 797.60 214.10 L 800.30 216.00 L 802.50 218.30 L 804.40 220.90 L 805.80 223.90 L 806.70 227.10 L 807.00 230.50 L 807.00 281.50 L 239.00 281.50 L 239.00 230.50 L 239.30 227.10 L 240.20 223.90 L 241.60 220.90 L 243.50 218.30 L 245.70 216.00 L 248.40 214.10 L 251.40 212.70 L 254.50 211.90 L 258.00 211.50 Z" fill="#2f7ffd" fill-rule="nonzero" group-id="4" id="矩形_2393" node-id="18" stroke="none" target-height="70" target-width="568" target-x="239" target-y="211.5"></path><path d="M 301.00 247.50 L 300.80 249.90 L 300.20 252.10 L 299.20 254.10 L 296.40 257.50 L 292.50 259.70 L 290.40 260.30 L 288.00 260.50 L 283.50 259.70 L 279.60 257.50 L 276.80 254.10 L 275.80 252.10 L 275.20 249.90 L 275.00 247.50 L 275.20 245.20 L 275.80 243.00 L 278.10 239.20 L 281.40 236.30 L 283.50 235.30 L 285.60 234.80 L 288.00 234.50 L 290.40 234.80 L 292.50 235.30 L 296.40 237.60 L 299.20 241.00 L 300.20 243.00 L 300.80 245.20 L 301.00 247.50 Z" fill="#ffffff" fill-rule="nonzero" group-id="5" id="椭圆_695" node-id="19" stroke="none" target-height="26" target-width="26" target-x="275" target-y="234.5"></path><path d="M 767.00 247.50 L 766.80 249.90 L 766.20 252.10 L 765.20 254.10 L 762.40 257.50 L 758.50 259.70 L 754.00 260.50 L 751.60 260.30 L 749.50 259.70 L 745.60 257.50 L 742.80 254.10 L 741.20 249.90 L 741.00 247.50 L 741.20 245.20 L 741.80 243.00 L 744.10 239.20 L 747.40 236.30 L 749.50 235.30 L 754.00 234.50 L 756.40 234.80 L 758.50 235.30 L 762.40 237.60 L 765.20 241.00 L 766.20 243.00 L 766.80 245.20 L 767.00 247.50 Z" fill="#ffffff" fill-rule="nonzero" group-id="6" id="椭圆_696" node-id="20" stroke="none" target-height="26" target-width="26" target-x="741" target-y="234.5"></path><path d="M 300.00 331.50 L 394.00 331.50 L 396.10 331.80 L 398.00 332.60 L 399.70 333.90 L 400.90 335.50 L 401.70 337.40 L 402.00 339.50 L 402.00 433.50 L 401.70 435.70 L 400.90 437.60 L 399.70 439.20 L 398.00 440.40 L 396.10 441.20 L 394.00 441.50 L 300.00 441.50 L 297.90 441.20 L 296.00 440.40 L 294.30 439.20 L 293.10 437.60 L 292.30 435.70 L 292.00 433.50 L 292.00 339.50 L 292.30 337.40 L 293.10 335.50 L 294.30 333.90 L 296.00 332.60 L 297.90 331.80 L 300.00 331.50 Z" fill="#00d680" fill-rule="nonzero" group-id="7" id="矩形_2394" node-id="21" stroke="none" target-height="110" target-width="110" target-x="292" target-y="331.5"></path><path d="M 300.00 495.50 L 394.00 495.50 L 396.10 495.80 L 398.00 496.60 L 399.70 497.90 L 400.90 499.50 L 401.70 501.40 L 402.00 503.50 L 402.00 597.50 L 401.70 599.70 L 400.90 601.60 L 399.70 603.20 L 398.00 604.40 L 396.10 605.20 L 394.00 605.50 L 300.00 605.50 L 297.90 605.20 L 296.00 604.40 L 294.30 603.20 L 293.10 601.60 L 292.30 599.70 L 292.00 597.50 L 292.00 503.50 L 292.30 501.40 L 293.10 499.50 L 294.30 497.90 L 296.00 496.60 L 297.90 495.80 L 300.00 495.50 Z" fill="#ffffff" fill-rule="nonzero" group-id="8" id="矩形_2397" node-id="22" stroke="none" target-height="110" target-width="110" target-x="292" target-y="495.5"></path><path d="M 476.00 331.50 L 570.00 331.50 L 572.10 331.80 L 574.00 332.60 L 575.70 333.90 L 576.90 335.50 L 577.70 337.40 L 578.00 339.50 L 578.00 433.50 L 577.70 435.70 L 576.90 437.60 L 575.70 439.20 L 574.00 440.40 L 572.10 441.20 L 570.00 441.50 L 476.00 441.50 L 473.90 441.20 L 472.00 440.40 L 470.30 439.20 L 469.10 437.60 L 468.30 435.70 L 468.00 433.50 L 468.00 339.50 L 468.30 337.40 L 469.10 335.50 L 470.30 333.90 L 472.00 332.60 L 473.90 331.80 L 476.00 331.50 Z" fill="#ffffff" fill-rule="nonzero" group-id="9" id="矩形_2395" node-id="23" stroke="none" target-height="110" target-width="110" target-x="468" target-y="331.5"></path><path d="M 476.00 495.50 L 570.00 495.50 L 572.10 495.80 L 574.00 496.60 L 575.70 497.90 L 576.90 499.50 L 577.70 501.40 L 578.00 503.50 L 578.00 597.50 L 577.70 599.70 L 576.90 601.60 L 575.70 603.20 L 574.00 604.40 L 572.10 605.20 L 570.00 605.50 L 476.00 605.50 L 473.90 605.20 L 472.00 604.40 L 470.30 603.20 L 469.10 601.60 L 468.30 599.70 L 468.00 597.50 L 468.00 503.50 L 468.30 501.40 L 469.10 499.50 L 470.30 497.90 L 472.00 496.60 L 473.90 495.80 L 476.00 495.50 Z" fill="#ffffff" fill-rule="nonzero" group-id="10" id="矩形_2398" node-id="24" stroke="none" target-height="110" target-width="110" target-x="468" target-y="495.5"></path><path d="M 652.00 331.50 L 746.00 331.50 L 748.10 331.80 L 750.00 332.60 L 751.70 333.90 L 752.90 335.50 L 753.70 337.40 L 754.00 339.50 L 754.00 433.50 L 753.70 435.70 L 752.90 437.60 L 751.70 439.20 L 750.00 440.40 L 748.10 441.20 L 746.00 441.50 L 652.00 441.50 L 649.90 441.20 L 648.00 440.40 L 646.30 439.20 L 645.10 437.60 L 644.30 435.70 L 644.00 433.50 L 644.00 339.50 L 644.30 337.40 L 645.10 335.50 L 646.30 333.90 L 648.00 332.60 L 649.90 331.80 L 652.00 331.50 Z" fill="#ffffff" fill-rule="nonzero" group-id="11" id="矩形_2396" node-id="25" stroke="none" target-height="110" target-width="110" target-x="644" target-y="331.5"></path><path d="M 329.10 374.70 L 314.50 387.90 L 343.80 416.10 L 386.90 374.70 L 373.00 360.60 L 343.80 390.90 Z" fill="#ffffff" fill-rule="nonzero" group-id="12" id="路径_1157" node-id="26" stroke="none" target-height="55.5" target-width="72.399994" target-x="314.5" target-y="360.6"></path><path d="M 620.00 463.50 L 886.90 463.50 L 952.00 525.30 L 952.00 708.50 L 951.80 711.10 L 951.10 713.40 L 948.70 717.60 L 947.00 719.20 L 945.10 720.60 L 942.90 721.70 L 940.60 722.30 L 938.00 722.50 L 620.00 722.50 L 617.40 722.30 L 615.10 721.70 L 612.90 720.60 L 611.00 719.20 L 609.30 717.60 L 607.90 715.60 L 606.90 713.40 L 606.20 711.10 L 606.00 708.50 L 606.00 477.50 L 606.20 475.00 L 606.90 472.60 L 607.90 470.50 L 609.30 468.50 L 611.00 466.80 L 612.90 465.40 L 615.10 464.40 L 617.40 463.80 L 620.00 463.50 Z" fill="#307eff" fill-rule="nonzero" group-id="13,17" id="路径_1158" node-id="28" stroke="none" target-height="259" target-width="346" target-x="606" target-y="463.5"></path><path d="M 886.90 525.40 L 951.90 525.20 L 886.90 463.60 Z" fill="#a4c5fd" fill-rule="nonzero" group-id="13" id="路径_1159" node-id="29" stroke="none" target-height="61.80002" target-width="65" target-x="886.9" target-y="463.6"></path><path d="M 644.00 441.50 L 681.00 441.50 L 681.00 500.50 L 644.00 500.50 Z" fill="#00d785" fill-rule="nonzero" group-id="13,18" id="矩形_2399" node-id="30" stroke="none" target-height="59" target-width="37" target-x="644" target-y="441.5"></path><path d="M 694.00 552.50 L 914.00 552.50 L 914.00 575.50 L 694.00 575.50 Z" fill="#dfe5f3" fill-rule="nonzero" group-id="13,19" id="矩形_2400" node-id="31" stroke="none" target-height="23" target-width="220" target-x="694" target-y="552.5"></path><path d="M 694.00 601.50 L 914.00 601.50 L 914.00 624.50 L 694.00 624.50 Z" fill="#dfe5f3" fill-rule="nonzero" group-id="13,20" id="矩形_2401" node-id="32" stroke="none" target-height="23" target-width="220" target-x="694" target-y="601.5"></path><path d="M 694.00 647.50 L 914.00 647.50 L 914.00 670.50 L 694.00 670.50 Z" fill="#dfe5f3" fill-rule="nonzero" group-id="13,21" id="矩形_2402" node-id="33" stroke="none" target-height="23" target-width="220" target-x="694" target-y="647.5"></path><path d="M 676.00 564.00 L 675.70 566.90 L 675.00 569.50 L 673.90 571.90 L 672.30 574.00 L 670.50 575.90 L 668.30 577.40 L 665.90 578.60 L 663.30 579.30 L 660.50 579.50 L 657.70 579.30 L 655.10 578.60 L 652.70 577.40 L 650.50 575.90 L 648.70 574.00 L 647.10 571.90 L 646.00 569.50 L 645.30 566.90 L 645.00 564.00 L 645.30 561.20 L 646.00 558.60 L 647.10 556.20 L 648.70 554.00 L 650.50 552.20 L 652.70 550.70 L 655.10 549.50 L 657.70 548.80 L 660.50 548.50 L 663.30 548.80 L 665.90 549.50 L 668.30 550.70 L 670.50 552.20 L 672.30 554.00 L 673.90 556.20 L 675.00 558.60 L 675.70 561.20 L 676.00 564.00 Z" fill="#00d785" fill-rule="nonzero" group-id="13,22" id="椭圆_697" node-id="34" stroke="none" target-height="31" target-width="31" target-x="645" target-y="548.5"></path><path d="M 676.00 613.00 L 675.70 615.90 L 675.00 618.50 L 673.90 620.90 L 672.30 623.00 L 670.50 624.90 L 668.30 626.40 L 665.90 627.60 L 663.30 628.30 L 660.50 628.50 L 657.70 628.30 L 655.10 627.60 L 652.70 626.40 L 650.50 624.90 L 648.70 623.00 L 647.10 620.90 L 646.00 618.50 L 645.30 615.90 L 645.00 613.00 L 645.30 610.20 L 646.00 607.60 L 647.10 605.20 L 648.70 603.00 L 650.50 601.20 L 652.70 599.70 L 655.10 598.50 L 657.70 597.80 L 660.50 597.50 L 663.30 597.80 L 665.90 598.50 L 668.30 599.70 L 670.50 601.20 L 672.30 603.00 L 673.90 605.20 L 675.00 607.60 L 675.70 610.20 L 676.00 613.00 Z" fill="#fbd635" fill-rule="nonzero" group-id="13,23" id="椭圆_698" node-id="35" stroke="none" target-height="31" target-width="31" target-x="645" target-y="597.5"></path><path d="M 676.00 659.00 L 675.70 661.90 L 675.00 664.50 L 673.90 666.90 L 672.30 669.00 L 670.50 670.90 L 668.30 672.40 L 665.90 673.60 L 663.30 674.30 L 660.50 674.50 L 657.70 674.30 L 655.10 673.60 L 652.70 672.40 L 650.50 670.90 L 648.70 669.00 L 647.10 666.90 L 646.00 664.50 L 645.30 661.90 L 645.00 659.00 L 645.30 656.20 L 646.00 653.60 L 647.10 651.20 L 648.70 649.00 L 650.50 647.20 L 652.70 645.70 L 655.10 644.50 L 657.70 643.80 L 660.50 643.50 L 663.30 643.80 L 665.90 644.50 L 668.30 645.70 L 670.50 647.20 L 672.30 649.00 L 673.90 651.20 L 675.00 653.60 L 675.70 656.20 L 676.00 659.00 Z" fill="#abcaff" fill-rule="nonzero" group-id="13,24" id="椭圆_699" node-id="36" stroke="none" target-height="31" target-width="31" target-x="645" target-y="643.5"></path><path d="M 165.00 495.50 L 325.00 495.50 L 328.80 496.20 L 330.60 497.00 L 333.40 499.40 L 335.30 502.70 L 335.80 504.50 L 336.00 546.50 L 335.30 550.40 L 333.40 553.60 L 330.60 556.00 L 328.80 556.80 L 325.00 557.50 L 165.00 557.50 L 161.20 556.80 L 159.40 556.00 L 156.60 553.60 L 154.70 550.40 L 154.20 548.50 L 154.00 506.50 L 154.70 502.70 L 156.60 499.40 L 159.40 497.00 L 161.20 496.20 L 165.00 495.50 Z" fill="#307eff" fill-rule="nonzero" group-id="14,25" id="矩形_2403" node-id="38" stroke="none" target-height="62" target-width="182" target-x="154" target-y="495.5"></path><path d="M 132.00 526.50 L 131.70 530.70 L 130.90 534.50 L 129.60 538.20 L 127.90 541.70 L 125.80 544.90 L 123.20 547.70 L 120.30 550.30 L 117.20 552.40 L 113.70 554.20 L 110.00 555.50 L 106.10 556.30 L 102.00 556.50 L 97.90 556.30 L 94.00 555.50 L 90.30 554.20 L 86.80 552.40 L 83.70 550.30 L 80.80 547.70 L 78.20 544.90 L 76.10 541.70 L 74.40 538.20 L 73.10 534.50 L 72.30 530.70 L 72.00 526.50 L 72.30 522.40 L 73.10 518.50 L 74.40 514.90 L 76.10 511.40 L 78.20 508.20 L 80.80 505.30 L 83.70 502.80 L 86.80 500.60 L 90.30 498.90 L 94.00 497.60 L 97.90 496.80 L 102.00 496.50 L 106.10 496.80 L 110.00 497.60 L 113.70 498.90 L 117.20 500.60 L 120.30 502.80 L 123.20 505.30 L 125.80 508.20 L 127.90 511.40 L 129.60 514.90 L 130.90 518.50 L 131.70 522.40 L 132.00 526.50 Z" fill="#307eff" fill-rule="nonzero" group-id="14,26" id="椭圆_700" node-id="39" stroke="none" target-height="60" target-width="60" target-x="72" target-y="496.5"></path><path d="M 111.90 509.60 L 119.00 516.60 L 92.10 543.50 L 85.00 536.40 Z" fill="#ffffff" fill-rule="nonzero" group-id="14,27" id="矩形_2404" node-id="40" stroke="none" target-height="33.899994" target-width="34" target-x="85" target-y="509.6"></path><path d="M 119.00 536.40 L 111.90 543.50 L 85.00 516.60 L 92.10 509.60 Z" fill="#ffffff" fill-rule="nonzero" group-id="14,28" id="矩形_2405" node-id="41" stroke="none" target-height="33.899994" target-width="34" target-x="85" target-y="509.6"></path><path d="M 165.00 577.50 L 325.00 577.50 L 328.80 578.20 L 330.60 579.00 L 333.40 581.40 L 335.30 584.70 L 335.80 586.50 L 336.00 628.50 L 335.30 632.40 L 333.40 635.60 L 330.60 638.00 L 328.80 638.80 L 325.00 639.50 L 165.00 639.50 L 161.20 638.80 L 159.40 638.00 L 156.60 635.60 L 154.70 632.40 L 154.20 630.50 L 154.00 588.50 L 154.70 584.70 L 156.60 581.40 L 159.40 579.00 L 161.20 578.20 L 165.00 577.50 Z" fill="#2ddb9c" fill-rule="nonzero" group-id="15,29" id="矩形_2403-2" node-id="43" stroke="none" target-height="62" target-width="182" target-x="154" target-y="577.5"></path><path d="M 132.00 608.50 L 131.70 612.70 L 130.90 616.50 L 129.60 620.20 L 127.90 623.70 L 125.80 626.90 L 123.20 629.70 L 120.30 632.30 L 117.20 634.40 L 113.70 636.20 L 110.00 637.50 L 106.10 638.30 L 102.00 638.50 L 97.90 638.30 L 94.00 637.50 L 90.30 636.20 L 86.80 634.40 L 83.70 632.30 L 80.80 629.70 L 78.20 626.90 L 76.10 623.70 L 74.40 620.20 L 73.10 616.50 L 72.30 612.70 L 72.00 608.50 L 72.30 604.40 L 73.10 600.50 L 74.40 596.90 L 76.10 593.40 L 78.20 590.20 L 80.80 587.30 L 83.70 584.80 L 86.80 582.60 L 90.30 580.90 L 94.00 579.60 L 97.90 578.80 L 102.00 578.50 L 106.10 578.80 L 110.00 579.60 L 113.70 580.90 L 117.20 582.60 L 120.30 584.80 L 123.20 587.30 L 125.80 590.20 L 127.90 593.40 L 129.60 596.90 L 130.90 600.50 L 131.70 604.40 L 132.00 608.50 Z" fill="#2ddb9c" fill-rule="nonzero" group-id="15,30" id="椭圆_700-2" node-id="44" stroke="none" target-height="60" target-width="60" target-x="72" target-y="578.5"></path><path d="M 113.30 592.90 L 120.30 600.00 L 99.10 621.20 L 92.00 614.10 Z" fill="#ffffff" fill-rule="nonzero" group-id="15,31" id="矩形_2404-2" node-id="45" stroke="none" target-height="28.299988" target-width="28.300003" target-x="92" target-y="592.9"></path><path d="M 106.20 614.10 L 99.10 621.20 L 85.00 607.00 L 92.00 600.00 Z" fill="#ffffff" fill-rule="nonzero" group-id="15,32" id="矩形_2405-2" node-id="46" stroke="none" target-height="21.200012" target-width="21.199997" target-x="85" target-y="600"></path><path d="M 509.00 806.10 L 509.00 814.20 L 529.50 833.70 L 531.50 837.10 L 532.20 839.00 L 532.60 841.00 L 532.40 842.80 L 531.10 844.70 L 530.00 845.40 L 526.70 846.00 L 524.00 845.70 L 520.40 845.00 L 511.50 842.10 L 497.00 835.90 L 481.90 828.30 L 477.30 825.30 L 475.30 823.20 L 474.50 821.80 L 474.00 820.30 L 474.00 818.60 L 474.70 816.50 L 477.90 812.20 L 486.20 803.90 L 487.60 801.30 L 487.80 799.60 L 488.30 799.20 L 491.80 799.50 L 494.90 800.30 L 501.30 802.70 L 509.00 806.10 Z" fill="#006cfb" fill-rule="nonzero" group-id="16,33,36" id="路径_1330" node-id="49" stroke="none" target-height="46.799988" target-width="58.599976" target-x="474" target-y="799.2"></path><path d="M 460.60 812.60 L 460.60 820.70 L 481.00 840.20 L 483.00 843.60 L 483.80 845.60 L 484.10 847.50 L 483.90 849.30 L 482.70 851.20 L 481.50 851.90 L 478.20 852.50 L 475.50 852.30 L 471.90 851.50 L 463.00 848.60 L 448.50 842.40 L 433.50 834.80 L 428.80 831.80 L 426.80 829.70 L 426.00 828.30 L 425.50 826.80 L 425.50 825.10 L 426.20 823.00 L 427.50 821.00 L 429.40 818.70 L 437.80 810.40 L 439.10 807.80 L 439.30 806.10 L 439.90 805.70 L 443.30 806.00 L 446.40 806.80 L 452.80 809.20 L 460.60 812.60 Z" fill="#006cfb" fill-rule="nonzero" group-id="16,33,37" id="路径_1332" node-id="50" stroke="none" target-height="46.799988" target-width="58.600006" target-x="425.5" target-y="805.7"></path><path d="M 541.70 595.50 L 547.20 634.90 L 549.00 650.10 L 550.90 670.40 L 551.20 691.50 L 550.90 699.80 L 549.30 714.00 L 546.60 726.00 L 542.50 738.40 L 531.30 764.40 L 516.50 800.10 L 514.10 804.30 L 511.10 806.10 L 508.20 806.90 L 504.50 807.30 L 500.80 807.30 L 496.90 806.70 L 492.00 805.20 L 487.90 802.60 L 486.40 801.00 L 485.10 799.00 L 484.40 796.90 L 484.10 794.40 L 484.40 791.50 L 487.30 780.50 L 502.00 737.60 L 505.60 726.30 L 507.10 719.60 L 505.80 701.70 L 500.70 645.20 L 503.00 603.20 Z" fill="#1f2a9d" fill-rule="nonzero" group-id="16,33,38" id="路径_1327" node-id="51" stroke="none" target-height="211.79999" target-width="67.100006" target-x="484.1" target-y="595.5"></path><g clip-path="url(#clip-path)" group-id="16,33,39" node-id="230"><path d="M 522.80 595.50 L 523.00 601.60 L 522.50 614.40 L 519.00 667.60 L 517.00 691.10 L 514.60 706.60 L 513.30 712.20 L 510.60 719.50 L 506.90 726.20 L 504.50 729.10 L 501.70 731.90 L 500.70 732.40 L 499.80 732.40 L 498.90 732.00 L 497.90 730.80 L 495.80 726.20 L 493.10 716.10 L 491.70 708.20 L 489.20 690.70 L 487.20 671.60 L 485.80 653.20 L 484.80 637.20 L 484.40 621.00 L 514.40 570.80 Z" fill="#1b2d91" fill-rule="nonzero" group-id="16,33,39,53" id="路径_1328" node-id="53" stroke="none" target-height="161.60004" target-width="38.600006" target-x="484.4" target-y="570.8"></path></g><path d="M 513.40 604.00 L 509.60 637.10 L 504.30 676.70 L 501.30 694.80 L 498.40 708.70 L 494.50 722.30 L 489.10 739.70 L 476.60 777.70 L 465.00 811.60 L 463.80 812.50 L 462.20 812.80 L 456.10 812.90 L 452.40 812.50 L 444.60 810.80 L 441.20 809.50 L 437.30 807.10 L 435.90 805.80 L 434.90 804.30 L 434.40 802.70 L 434.40 800.90 L 451.70 723.70 L 455.40 706.70 L 458.50 688.90 L 458.60 686.80 L 456.50 654.00 L 456.20 637.50 L 456.30 629.00 L 457.50 612.60 L 458.60 605.20 L 459.60 600.40 L 462.20 592.50 L 463.60 589.90 L 465.00 587.90 L 466.70 586.30 L 468.40 585.20 L 471.10 584.20 L 473.90 583.70 L 477.00 583.70 L 480.20 584.20 L 486.90 586.40 L 491.80 588.80 L 496.60 591.50 L 505.10 597.30 L 513.40 604.00 Z" fill="#1d2882" fill-rule="nonzero" group-id="16,33,40" id="路径_1331" node-id="54" stroke="none" target-height="229.20001" target-width="79.00003" target-x="434.4" target-y="583.7"></path><g clip-path="url(#clip-path-2)" group-id="16,33,41" node-id="240"><path d="M 477.80 599.50 L 470.00 675.50 L 465.80 710.40 L 464.90 716.30 L 456.60 757.60 L 452.60 774.40 L 447.90 790.10 L 445.20 797.10 L 442.50 802.80 L 440.40 806.20 L 438.40 808.80 L 436.40 810.50 L 433.30 812.50 L 430.70 813.70 L 428.40 814.30 L 426.10 814.50 L 422.30 813.80 L 419.90 812.50 L 418.00 810.90 L 416.40 809.20 L 414.60 806.20 L 431.10 707.20 L 436.40 623.70 L 453.00 588.30 Z" fill="#112071" fill-rule="nonzero" group-id="16,33,41,54" id="路径_1333" node-id="56" stroke="none" target-height="226.20001" target-width="63.19998" target-x="414.6" target-y="588.3"></path></g><path d="M 532.80 417.60 L 532.80 434.30 L 531.30 452.50 L 527.20 461.70 L 515.60 461.70 L 513.00 440.20 L 516.60 428.00 L 517.50 417.60 Z" fill="#ee9d99" fill-rule="nonzero" group-id="16,34,42" id="路径_1313" node-id="58" stroke="none" target-height="44.100006" target-width="19.799988" target-x="513" target-y="417.6"></path><path d="M 549.90 377.70 L 551.40 394.20 L 551.80 406.70 L 551.00 412.10 L 550.40 413.90 L 548.50 417.00 L 547.20 418.20 L 545.30 419.10 L 542.80 419.60 L 537.20 419.50 L 530.70 418.60 L 517.90 415.90 L 507.50 402.20 L 512.80 380.80 L 530.30 373.70 L 547.50 370.40 Z" fill="#feaba7" fill-rule="nonzero" group-id="16,34,43" id="路径_1314" node-id="59" stroke="none" target-height="49.200012" target-width="44.299988" target-x="507.5" target-y="370.4"></path><path d="M 550.00 386.50 L 553.20 383.60 L 554.40 382.10 L 556.10 378.00 L 556.40 375.50 L 556.30 364.50 L 555.70 360.30 L 554.90 358.80 L 553.30 358.90 L 547.60 361.50 L 545.20 362.10 L 542.10 362.40 L 527.50 361.20 L 519.30 361.40 L 514.60 362.40 L 509.50 365.50 L 503.30 370.90 L 500.70 374.00 L 498.50 377.40 L 496.80 381.10 L 496.00 384.10 L 495.60 387.80 L 495.60 391.60 L 496.20 395.60 L 497.10 399.50 L 498.50 403.10 L 501.10 407.30 L 502.70 409.00 L 509.30 414.50 L 514.60 418.30 L 517.00 419.70 L 521.20 419.80 L 524.10 419.00 L 525.30 418.10 L 526.20 416.60 L 526.50 414.00 L 525.20 408.50 L 524.20 406.40 L 521.80 403.60 L 518.10 401.30 L 517.00 400.10 L 516.30 398.70 L 515.90 397.20 L 516.10 393.70 L 517.70 390.50 L 518.90 389.10 L 520.60 388.10 L 522.60 387.40 L 528.90 386.40 L 532.00 384.90 L 534.80 381.90 L 536.90 378.80 L 539.60 373.50 L 550.00 379.70 L 550.00 386.50 Z" fill="#1d288f" fill-rule="nonzero" group-id="16,34,44" id="路径_1315" node-id="60" stroke="none" target-height="61" target-width="60.80002" target-x="495.6" target-y="358.8"></path><path d="M 489.30 630.10 L 380.50 607.60 L 365.20 612.10 L 350.70 689.70 L 458.30 711.20 L 474.80 708.90 Z" fill="#171c53" fill-rule="nonzero" group-id="16,35,45,55" id="路径_1324" node-id="63" stroke="none" target-height="103.60004" target-width="138.59998" target-x="350.7" target-y="607.6"></path><path d="M 473.80 633.20 L 458.00 710.80 L 350.70 689.70 L 365.00 612.30 Z" fill="#1e2889" fill-rule="nonzero" group-id="16,35,45,56" id="路径_1325" node-id="64" stroke="none" target-height="98.5" target-width="123.099976" target-x="350.7" target-y="612.3"></path><path d="M 445.00 623.80 L 445.70 620.10 L 445.70 617.50 L 445.30 614.80 L 444.30 611.80 L 443.20 610.00 L 441.70 608.20 L 439.50 606.50 L 437.20 605.10 L 434.00 604.00 L 429.90 603.00 L 425.70 602.60 L 422.30 602.60 L 417.00 603.80 L 413.30 605.90 L 411.30 608.00 L 410.00 610.00 L 409.20 612.10 L 408.60 615.30" fill="none" group-id="16,35,45,57" id="路径_1326" node-id="65" stroke="#00015f" stroke-linecap="round" stroke-width="6" target-height="21.200012" target-width="37.100006" target-x="408.6" target-y="602.6"></path><path d="M 440.40 587.80 L 441.10 595.40 L 441.10 601.90 L 440.40 607.50 L 439.30 610.40 L 438.00 612.50 L 436.50 613.90 L 434.60 614.80 L 432.60 615.20 L 430.30 614.90 L 426.90 613.80 L 425.30 612.80 L 423.30 610.30 L 422.40 607.00 L 422.50 602.70 L 424.70 593.90 L 426.10 589.60 L 429.90 581.60 Z" fill="#fdaaa2" fill-rule="nonzero" group-id="16,35,46" id="路径_1322" node-id="66" stroke="none" target-height="33.600037" target-width="18.700012" target-x="422.4" target-y="581.6"></path><path d="M 600.60 515.60 L 604.10 511.70 L 609.80 506.90 L 613.50 504.70 L 616.10 503.60 L 618.80 502.90 L 621.70 502.60 L 627.40 502.70 L 632.50 503.40 L 638.50 505.00 L 642.50 507.30 L 643.60 508.60 L 644.00 510.00 L 643.90 511.50 L 643.50 512.80 L 642.60 514.10 L 641.50 515.10 L 637.10 517.00 L 630.70 517.90 L 620.50 518.50 L 615.60 519.30 L 607.00 521.90 L 598.90 525.50 Z" fill="#fdaaa2" fill-rule="nonzero" group-id="16,35,47" id="路径_1323" node-id="67" stroke="none" target-height="22.899994" target-width="45.099976" target-x="598.9" target-y="502.6"></path><path d="M 532.80 427.80 L 527.70 436.50 L 524.80 460.40 L 522.60 437.80 L 516.20 426.80 L 508.50 432.90 L 504.20 432.90 L 504.20 445.30 L 507.00 462.70 L 516.20 481.50 L 519.30 485.30 L 532.80 473.50 L 537.10 459.20 L 545.00 436.50 L 541.70 436.50 Z" fill="#aed3f8" fill-rule="nonzero" group-id="16,35,48" id="路径_1316" node-id="68" stroke="none" target-height="58.5" target-width="40.799988" target-x="504.2" target-y="426.8"></path><path d="M 545.00 436.50 L 524.10 480.10 L 520.00 480.10 L 504.50 432.70 L 498.90 432.70 L 493.00 436.50 L 493.00 470.70 L 503.20 498.00 L 524.10 528.50 L 537.40 543.80 L 549.20 543.70 L 553.80 543.30 L 566.50 541.10 L 580.30 537.10 L 587.70 534.40 L 596.00 530.90 L 605.40 526.50 L 599.70 511.30 L 581.20 517.20 L 571.70 519.80 L 563.70 521.60 L 560.50 522.00 L 558.90 521.90 L 558.40 521.40 L 557.20 517.40 L 556.30 506.80 L 555.90 492.50 L 555.90 448.50 L 555.70 447.80 L 545.00 436.50 Z" fill="#5267d5" fill-rule="nonzero" group-id="16,35,49" id="路径_1317" node-id="69" stroke="none" target-height="111.099976" target-width="112.400024" target-x="493" target-y="432.7"></path><path d="M 547.00 437.50 L 554.00 443.50 L 555.60 445.70 L 542.10 595.60 L 534.90 600.10 L 526.30 603.80 L 521.00 605.30 L 514.80 606.60 L 505.80 607.30 L 500.70 607.20 L 494.30 606.50 L 483.80 604.40 L 476.70 602.10 L 471.40 599.90 L 466.70 597.50 L 461.30 593.90 L 466.20 485.90 L 477.80 437.50 L 485.80 434.40 L 489.30 433.40 L 493.00 432.60 L 496.60 432.30 L 499.70 432.50 L 497.90 462.10 L 505.00 463.10 L 505.00 471.10 L 521.30 498.20 L 539.30 471.10 L 539.30 463.10 L 547.00 462.10 Z" fill="#ffaa01" fill-rule="nonzero" group-id="16,35,50" id="路径_1318" node-id="70" stroke="none" target-height="175" target-width="94.29999" target-x="461.3" target-y="432.3"></path><g clip-path="url(#clip-path-3)" group-id="16,35,51" node-id="296"><path d="M 490.70 445.20 L 487.90 480.30 L 476.20 605.50 L 459.90 599.90 L 456.30 587.00 L 456.30 460.80 L 476.20 437.20 Z" fill="#fd9002" fill-rule="nonzero" group-id="16,35,51,58" id="路径_1319" node-id="72" stroke="none" target-height="168.29999" target-width="34.400024" target-x="456.3" target-y="437.2"></path></g><path d="M 487.50 459.50 L 476.60 494.20 L 463.70 533.60 L 451.40 569.20 L 445.00 585.20 L 444.10 586.60 L 441.00 588.70 L 439.00 589.40 L 435.90 589.80 L 432.80 589.70 L 429.00 588.70 L 427.60 587.80 L 426.50 586.70 L 425.90 585.40 L 425.80 583.80 L 426.20 582.00 L 431.90 562.90 L 457.60 482.00 L 462.10 467.30 L 465.20 455.90 L 466.70 451.90 L 468.60 448.20 L 470.90 444.70 L 474.40 441.00 L 476.20 439.80 L 478.20 438.90 L 480.10 438.70 L 482.00 439.00 L 483.90 439.80 L 485.30 440.90 L 486.40 442.30 L 487.70 444.80 L 488.30 447.70 L 488.60 450.70 L 488.50 453.80 L 487.50 459.50 Z" fill="#5366cf" fill-rule="nonzero" group-id="16,35,52" id="路径_1321" node-id="73" stroke="none" target-height="151.09998" target-width="62.80002" target-x="425.8" target-y="438.7"></path></g></svg>