<?xml version="1.0" standalone="no"?><!DOCTYPE svg PUBLIC "-//W3C//DTD SVG 1.1//EN" "http://www.w3.org/Graphics/SVG/1.1/DTD/svg11.dtd"><svg t="1724248372125" class="icon" viewBox="0 0 1024 1024" version="1.1" xmlns="http://www.w3.org/2000/svg" p-id="7270" width="32" height="32" xmlns:xlink="http://www.w3.org/1999/xlink"><path d="M507.687111 368.355556l-8.177778 97.934222c-9.770667 20.024889-16.142222 38.300444-19.107555 54.840889 0.106667 4.600889 2.147556 11.825778 10.631111 0.455111 8.483556-11.377778 17.92-22.961778 22.848-21.276445 4.928 1.685333 3.662222 11.911111 11.171555 13.198223 5.013333 0.853333 4.963556-15.630222-0.142222-49.457778l27.079111-80.547556-44.302222-15.146666z" fill="#FFDDBE" p-id="7271"></path><path d="M540.248889 180.103111c-0.355556 91.605333-26.503111 175.644444-76.266667 275.057778l48.334222 18.062222c71.537778-80.839111 107.960889-126.023111 95.416889-205.688889-3.143111-19.996444-27.612444-76.032-39.139555-106.225778l-28.344889 18.794667z" fill="#1E70EF" p-id="7272"></path><path d="M639.804444 416.348444l-89.351111 317.226667-65.194666 233.813333h-47.552l69.283555-551.04z" fill="#07285E" p-id="7273"></path><path d="M649.148444 412.608c10.588444 163.164444-9.408 383.395556 9.962667 554.616889l-49.187555 2.588444c-36.828444-165.283556-65.728-395.050667-117.546667-548.956444l156.771555-8.248889z" fill="#022F77" p-id="7274"></path><path d="M521.639111 42.631111c-13.952 26.922667-12.295111 95.210667 5.731556 100.024889 7.189333 1.92 22.506667-2.780444 38.094222-12.515556l-9.784889 71.68h57.777778l-19.896889-95.985777c11.093333-13.482667 18.602667-30.008889 17.351111-48.519111-3.612444-53.333333-75.328-41.6-89.272889-14.684445z" fill="#FFDDBE" p-id="7275"></path><path d="M598.005333 117.838222c7.253333-33.400889 27.911111-56.170667 24.746667-71.096889-2.097778-9.955556-7.701333-16.142222-16.810667-18.567111-4.707556-19.733333-19.904-28.124444-45.582222-25.173333-38.506667 4.408889-62.008889 20.977778-51.861333 57.415111 9.329778 0 20.593778-3.498667 36.174222 2.488889 4.942222 1.898667 8.476444 7.793778 10.595556 17.671111h7.04c6.833778-11.726222 13.575111-16.035556 20.216888-12.928 6.634667 3.107556 8.149333 10.666667 4.522667 22.648889l3.470222 27.541333h7.488z" fill="#191847" p-id="7276"></path><path d="M508.554667 367.893333l-53.191111 82.631111c-18.033778 13.084444-32.234667 26.24-42.624 39.445334-2.062222 4.117333-3.655111 11.448889 9.173333 5.397333 12.835556-6.065778 26.602667-11.861333 30.165333-8.056889 3.555556 3.797333-2.368 12.231111 3.669334 16.896 4.017778 3.107556 11.719111-11.470222 23.089777-43.733333l61.724445-58.410667-32-34.168889z" fill="#FFDDBE" p-id="7277"></path><path d="M664.835556 434.439111h-191.146667c43.299556-132.579556 65.415111-223.573333 66.353778-272.995555 0.049778-2.510222 4.679111-6.954667 6.734222-6.371556 14.990222 4.252444 31.032889 2.659556 48.120889-4.764444 45.319111 73.173333 60.984889 163.264 69.937778 284.131555z" fill="#ADCDFF" p-id="7278"></path><path d="M578.627556 150.307556a1406.883556 1406.883556 0 0 0-14.990223 48.142222l-0.853333-0.476445c-17.763556 51.505778-39.616 140.323556-96.725333 232.206223l30.883555 21.390222a1150.663111 1150.663111 0 0 0 31.893334-34.787556c3.228444 48.369778 20.003556 78.990222 55.552 78.990222H686.296889c-10.439111-37.923556-28.444444-199.964444-46.293333-288.974222-6.478222-32.291556-13.795556-37.013333-19.505778-48.071111-1.500444-2.922667-4.707556-8.419556-12.259556-8.419555z" fill="#2072F0" p-id="7279"></path><path d="M660.696889 1018.538667l-2.467556-52.359111h-51.754666c-24.540444 17.450667-56.583111 31.580444-96.120889 42.382222v9.976889h93.653333l32.042667-4.984889v4.984889h24.647111z" fill="#191847" p-id="7280"></path><path d="M491.928889 1012.266667l-2.460445-52.359111h-51.761777c-24.533333 17.457778-56.576 31.580444-96.120889 42.382222v9.976889h93.653333l32.042667-4.977778v4.977778h24.647111z" fill="#191847" p-id="7281"></path></svg>